<?xml version="1.0" encoding="UTF-8"?>
<svg xmlns="http://www.w3.org/2000/svg" xmlns:xlink="http://www.w3.org/1999/xlink" viewBox="0 0 70 70">
  <defs>
    <style>
      .cls-1 {
        fill: #dfe0ed;
      }

      .cls-2 {
        fill: #fff;
      }

      .cls-3 {
        fill: #44465d;
      }

      .cls-4 {
        fill: #fdffc2;
        opacity: .2;
      }

      .cls-5 {
        mix-blend-mode: multiply;
        opacity: .3;
      }

      .cls-5, .cls-6 {
        fill: #ffa142;
      }

      .cls-7 {
        fill: #006837;
      }

      .cls-8 {
        isolation: isolate;
      }

      .cls-8, .cls-9, .cls-10 {
        fill: none;
      }

      .cls-11 {
        fill: #5ff781;
        opacity: .28;
      }

      .cls-10 {
        clip-path: url(#clippath);
      }
    </style>
    <clipPath id="clippath">
      <ellipse class="cls-9" cx="35.37" cy="35.22" rx="33.37" ry="33.06"/>
    </clipPath>
  </defs>
  <g class="cls-8">
    <g id="Layer_1" data-name="Layer 1">
      <g class="cls-10">
        <ellipse class="cls-7" cx="35.37" cy="34.94" rx="33.37" ry="33.06"/>
        <g>
          <g>
            <g>
              <rect class="cls-1" x="53.5" y="17.83" width="1.38" height="8.82"/>
              <path class="cls-2" d="m56.66,16.64c0-1.35-1.1-2.45-2.47-2.45s-2.47,1.1-2.47,2.45,1.1,2.45,2.47,2.45,2.47-1.09,2.47-2.45Z"/>
            </g>
            <g>
              <rect class="cls-1" x="15.85" y="17.83" width="1.38" height="8.82"/>
              <path class="cls-2" d="m19.01,16.64c0-1.35-1.1-2.45-2.47-2.45s-2.47,1.1-2.47,2.45,1.11,2.45,2.47,2.45,2.47-1.09,2.47-2.45Z"/>
            </g>
          </g>
          <path class="cls-1" d="m55.92,17.06c0-1.32-1.08-2.38-2.4-2.38-.33,0-.65.07-.94.19.43-.42,1.02-.68,1.68-.68,1.32,0,2.4,1.06,2.4,2.38,0,.99-.6,1.83-1.47,2.19.45-.43.73-1.04.73-1.71Z"/>
        </g>
        <rect class="cls-1" x="31.67" y="51.52" width="7.39" height="7.46"/>
        <path class="cls-2" d="m35.37,56.02c5.87,0,12.88,2.76,13.3,10.54.01.35.02,1.57.02,2.06s-.01,2.34-.02,2.69c-.44,7.76-7.44,9.01-13.3,9.01s-12.86-1.25-13.3-9.01c-.01-.36-.02-2.22-.02-2.69s0-1.72.02-2.06c.43-7.78,7.43-10.54,13.3-10.54Z"/>
        <path class="cls-1" d="m57.5,35.34c0-.1,0-1.26,0-1.36-.15-2.79-2.48-3.94-5.34-3.94s-5.18,1.64-5.34,4.42c0,.1,0,.77,0,.87s0,1.26,0,1.35c.15,2.79,2.48,4.43,5.34,4.43s5.19-1.15,5.34-3.95c0-.09,0-1.74,0-1.84Z"/>
        <path class="cls-2" d="m53.23,35.88c0-.33,0-2.59-.03-2.91-.51-9.32-8.31-14.79-17.84-14.79s-17.32,5.47-17.84,14.79c-.02.33-.03,2.58-.03,2.91s0,2.57.03,2.88c.5,9.34,8.29,14.82,17.84,14.82s17.35-5.49,17.84-14.82c.02-.31.03-2.56.03-2.88Z"/>
        <path class="cls-1" d="m53.37,32.96c-.52-9.32-8.31-14.79-17.84-14.79-.34,0-.67,0-1,.02,9.07.37,16.34,5.77,16.84,14.77.02.33.03,2.58.03,2.91s0,2.57-.02,2.88c-.48,9.01-7.76,14.43-16.84,14.8.33.01.66.02,1,.02,9.55,0,17.35-5.49,17.84-14.82.02-.31.02-2.56.02-2.88s0-2.59-.03-2.91Z"/>
        <path class="cls-2" d="m23.92,35.34c0-.1,0-.77,0-.87-.15-2.79-2.48-4.42-5.34-4.42s-5.18,1.39-5.34,4.18c0,.1,0,1.02,0,1.12s0,1.5,0,1.59c.15,2.79,2.48,4.19,5.34,4.19s5.19-1.64,5.34-4.43c0-.09,0-1.25,0-1.35Z"/>
        <path class="cls-11" d="m35.37,48.48c-5.87,0-12.88-2.76-13.3-10.54-.01-.35-.02-1.57-.02-2.06s.01-2.34.02-2.69c.44-7.76,7.44-9.67,13.3-9.67s12.86,1.91,13.3,9.67c.01.36.02,2.21.02,2.69s0,1.71-.02,2.06c-.43,7.78-7.43,10.54-13.3,10.54Z"/>
        <g>
          <path class="cls-3" d="m30.53,37.6c0-1.15-.94-2.07-2.09-2.07s-2.09.93-2.09,2.07.94,2.07,2.09,2.07,2.09-.93,2.09-2.07Z"/>
          <path class="cls-3" d="m44.07,37.6c0-1.15-.94-2.07-2.09-2.07s-2.09.93-2.09,2.07.94,2.07,2.09,2.07,2.09-.93,2.09-2.07Z"/>
        </g>
        <g>
          <path class="cls-6" d="m35.13,11.42c-2.22.03-24.98,18.77-24.98,19.17.03,2.11,11.36,3.67,25.31,3.48,13.95-.19,25.23-2.05,25.2-4.16,0-.48-23.57-18.53-25.53-18.5Z"/>
          <path class="cls-5" d="m22.19,30.18c-1.73-2.67,5.77-11.73,10.87-17.72-6.16,3.93-22.92,17.78-22.91,18.13.03,2.11,11.36,3.67,25.31,3.48,12.56-.17,22.93-1.69,24.85-3.54-13.41,3.85-36.59,2-38.12-.35Z"/>
          <path class="cls-4" d="m36.66,13.86s13.3,14.21,17.75,15.45,3.51-.16-1.07-3.93c-4.58-3.76-20.16-15.66-16.68-11.52Z"/>
        </g>
      </g>
    </g>
  </g>
</svg>